#!OML:ASF F:\VICON\USERDATA\INSTALL\rory3\rory3.ASF
:FULLY-SPECIFIED
:DEGREES
163
root 0.986727 17.0835 3.34736 1.08078 3.53594 6.42727
lowerback 6.13522 -3.19406 -6.46123
upperback -0.375311 -4.64403 2.509
thorax -3.10752 -2.18972 6.6318
lowerneck -17.0386 -1.82003 -9.54441
upperneck 24.0587 -0.72841 3.38356
head 10.6144 -0.805972 2.71612
rclavicle 1.98785e-016 7.95139e-015
rhumerus -41.3677 -17.9107 -72.8778
rradius 25.7885
rwrist 7.37529
rhand -14.9151 13.8507
rfingers 7.12502
rthumb 11.2466 -15.8279
lclavicle 1.98785e-016 7.95139e-015
lhumerus -24.4679 1.36178 82.0399
lradius 34.4346
lwrist -11.133
lhand -12.2597 25.4064
lfingers 7.12502
lthumb 13.8068 54.9282
rfemur -28.804 -0.245368 11.4823
rtibia 12.8553
rfoot -6.23681 -9.50812
rtoes -6.11305
lfemur 14.323 -2.61761 -29.5193
ltibia 16.898
lfoot -16.7761 -0.572645
ltoes -13.2925
164
root 0.962033 17.0733 3.55134 0.954348 3.33303 6.14832
lowerback 6.05658 -3.10709 -6.27123
upperback -0.312575 -4.50607 2.57477
thorax -3.02862 -2.1289 6.5763
lowerneck -17.0545 -1.93722 -9.76057
upperneck 24.2308 -0.882869 3.58002
head 10.6946 -0.877175 2.8052
rclavicle 8.24956e-015 -2.54444e-014
rhumerus -41.7816 -18.0532 -72.7284
rradius 25.7655
rwrist 7.35497
rhand -15.0262 13.1529
rfingers 7.12502
rthumb 11.1395 -16.5315
lclavicle 8.24956e-015 -2.54444e-014
lhumerus -24.1798 1.59362 81.9323
lradius 34.5264
lwrist -11.4484
lhand -11.8801 26.3305
lfingers 7.12502
lthumb 14.1725 55.8271
rfemur -29.0803 -1.00537 12.5101
rtibia 14.7983
rfoot -5.77037 -7.93719
rtoes -5.06981
lfemur 14.7162 -2.98845 -29.2791
ltibia 17.7034
lfoot -16.3047 -0.925614
ltoes -13.8059
165
root 0.93359 17.0642 3.76231 0.703637 3.31664 5.83289
lowerback 6.1123 -3.08211 -6.13581
upperback -0.217172 -4.46056 2.69607
thorax -2.96771 -2.1131 6.62461
lowerneck -17.0666 -1.92842 -9.87056
upperneck 24.22 -0.864456 3.68281
head 10.6923 -0.865976 2.86353
rclavicle 4.11484e-014 -3.49861e-014
rhumerus -41.9935 -18.4775 -72.2739
rradius 25.1725
rwrist 8.04065
rhand -15.1839 13.8075
rfingers 7.12502
rthumb 10.9874 -15.8849
lclavicle 4.11484e-014 -3.49861e-014
lhumerus -23.9983 1.83849 81.8992
lradius 34.697
lwrist -11.5074
lhand -11.8374 26.9851
lfingers 7.12502
lthumb 14.2137 56.4788
rfemur -28.976 -1.19213 13.3189
rtibia 16.6423
rfoot -5.67733 -7.0407
rtoes -4.9401
lfemur 15.184 -3.48574 -28.9891
ltibia 18.6777
lfoot -15.6312 -1.03112
ltoes -15.0734
166
root 0.902949 17.0526 3.97954 0.461368 3.25825 5.5539
lowerback 6.1191 -3.07027 -6.07536
upperback -0.126335 -4.43622 2.79966
thorax -2.87669 -2.10799 6.69457
lowerneck -17.1408 -1.8769 -9.79495
upperneck 24.2193 -0.807451 3.69095
head 10.7008 -0.83145 2.86209
rclavicle 4.60187e-014 -1.90833e-014
rhumerus -42.1828 -19.0017 -71.7735
rradius 24.4028
rwrist 8.98089
rhand -15.4266 14.9581
rfingers 7.12502
rthumb 10.7533 -14.7466
lclavicle 4.60187e-014 -1.90833e-014
lhumerus -24.0393 1.99488 81.8082
lradius 34.9861
lwrist -11.2631
lhand -12.4215 25.8447
lfingers 7.12502
lthumb 13.6508 55.3771
rfemur -28.7426 -1.17452 14.0475
rtibia 18.3381
rfoot -5.5925 -6.16392
rtoes -4.71939
lfemur 15.646 -3.7956 -28.6776
ltibia 19.5801
lfoot -14.7214 -1.14689
ltoes -16.9378
167
root 0.874402 17.0532 4.20109 0.467097 3.17019 5.37955
lowerback 5.75541 -3.0615 -6.03923
upperback -0.0296493 -4.39923 2.87113
thorax -2.57463 -2.10562 6.71598
lowerneck -17.1961 -1.92702 -9.84799
upperneck 24.0785 -0.870655 3.74621
head 10.6649 -0.854441 2.87966
rclavicle -4.52235e-014 1.27222e-014
rhumerus -42.3052 -19.5593 -71.3197
rradius 23.7951
rwrist 9.8532
rhand -15.8271 15.8204
rfingers 7.12502
rthumb 10.367 -13.9041
lclavicle -4.52235e-014 1.27222e-014
lhumerus -23.9653 1.99087 81.733
lradius 35.127
lwrist -10.9342
lhand -12.9567 24.6766
lfingers 7.12502
lthumb 13.135 54.243
rfemur -28.6028 -1.02737 14.5575
rtibia 19.6754
rfoot -5.02398 -4.98714
rtoes -4.65392
lfemur 15.8248 -3.98742 -28.4264
ltibia 20.4099
lfoot -13.6131 -1.5131
ltoes -18.62
